<svg xmlns="http://www.w3.org/2000/svg" xmlns:xlink="http://www.w3.org/1999/xlink" width="500" zoomAndPan="magnify" viewBox="0 0 375 374.999991" height="500" preserveAspectRatio="xMidYMid meet" version="1.0"><defs><g/><clipPath id="a2bcbf092d"><path d="M 91.503906 251 L 110 251 L 110 275 L 91.503906 275 Z M 91.503906 251 " clip-rule="nonzero"/></clipPath><clipPath id="0f3c6d4c50"><path d="M 190 74.75 L 201 74.75 L 201 86 L 190 86 Z M 190 74.75 " clip-rule="nonzero"/></clipPath></defs><g fill="#000000" fill-opacity="1"><g transform="translate(184.306634, 195.374987)"><g><path d="M 3.1875 -13.265625 C 2.65625 -13.265625 2.21875 -13.425781 1.875 -13.75 C 1.539062 -14.082031 1.375 -14.503906 1.375 -15.015625 C 1.375 -15.523438 1.539062 -15.941406 1.875 -16.265625 C 2.21875 -16.597656 2.65625 -16.765625 3.1875 -16.765625 C 3.550781 -16.765625 3.867188 -16.6875 4.140625 -16.53125 C 4.421875 -16.382812 4.640625 -16.175781 4.796875 -15.90625 C 4.953125 -15.644531 5.03125 -15.347656 5.03125 -15.015625 C 5.03125 -14.679688 4.953125 -14.378906 4.796875 -14.109375 C 4.640625 -13.847656 4.421875 -13.640625 4.140625 -13.484375 C 3.867188 -13.335938 3.550781 -13.265625 3.1875 -13.265625 Z M 0.921875 5.03125 C 0.046875 5.03125 -0.65625 4.914062 -1.1875 4.6875 L -0.8125 2.34375 L -0.609375 2.28125 C -0.328125 2.414062 0.00390625 2.484375 0.390625 2.484375 C 1.265625 2.484375 1.703125 1.96875 1.703125 0.9375 L 1.703125 -11.84375 L 4.6875 -11.84375 L 4.6875 0.84375 C 4.6875 2.226562 4.363281 3.269531 3.71875 3.96875 C 3.082031 4.675781 2.148438 5.03125 0.921875 5.03125 Z M 0.921875 5.03125 "/></g></g></g><path fill="#dbe6fa" d="M 169.714844 181.488281 L 169.761719 190.851562 C 169.734375 181.574219 175.851562 172.285156 188.097656 165.222656 C 212.4375 151.1875 251.910156 151.1875 276.089844 165.222656 C 288.101562 172.195312 294.113281 181.339844 294.140625 190.496094 L 294.089844 181.132812 C 294.066406 171.972656 288.050781 162.828125 276.039062 155.855469 C 251.863281 141.820312 212.386719 141.820312 188.050781 155.855469 C 175.804688 162.917969 169.6875 172.210938 169.714844 181.488281 Z M 169.714844 181.488281 " fill-opacity="1" fill-rule="nonzero"/><path fill="#dbe6fa" d="M 161.191406 181.511719 L 161.242188 190.878906 C 161.269531 201.289062 168.109375 211.6875 181.765625 219.613281 C 209.257812 235.574219 254.152344 235.582031 281.824219 219.625 C 295.75 211.59375 302.707031 201.023438 302.675781 190.472656 L 302.625 181.105469 C 302.65625 191.660156 295.703125 202.226562 281.773438 210.257812 C 254.101562 226.214844 209.210938 226.207031 181.714844 210.25 C 168.058594 202.320312 161.222656 191.925781 161.191406 181.511719 Z M 161.191406 181.511719 " fill-opacity="1" fill-rule="nonzero"/><path fill="#cbdbf4" d="M 294.089844 181.132812 C 294.066406 171.972656 288.054688 162.828125 276.039062 155.855469 C 261.648438 147.5 241.84375 144.160156 223.03125 145.753906 L 223.03125 155.121094 C 241.859375 153.519531 261.683594 156.859375 276.089844 165.222656 C 288.101562 172.195312 294.113281 181.339844 294.140625 190.496094 Z M 294.089844 181.132812 " fill-opacity="1" fill-rule="nonzero"/><path fill="#cbdbf4" d="M 302.625 181.109375 C 302.65625 191.660156 295.699219 202.226562 281.773438 210.257812 C 265.730469 219.511719 243.90625 223.359375 223.03125 221.878906 L 223.03125 231.242188 C 243.917969 232.730469 265.765625 228.882812 281.824219 219.625 C 295.75 211.59375 302.707031 201.023438 302.675781 190.472656 Z M 302.625 181.109375 " fill-opacity="1" fill-rule="nonzero"/><path fill="#ebf2ff" d="M 282.101562 152.359375 C 309.59375 168.320312 309.449219 194.300781 281.773438 210.257812 C 254.101562 226.214844 209.210938 226.207031 181.714844 210.25 C 154.222656 194.292969 154.371094 168.328125 182.042969 152.367188 C 209.714844 136.410156 254.609375 136.402344 282.101562 152.359375 Z M 275.753906 206.761719 C 300.089844 192.730469 300.21875 169.890625 276.039062 155.855469 C 251.863281 141.820312 212.386719 141.820312 188.050781 155.855469 C 163.714844 169.890625 163.585938 192.726562 187.761719 206.761719 C 211.941406 220.796875 251.417969 220.796875 275.753906 206.761719 " fill-opacity="1" fill-rule="nonzero"/><path fill="#4f575f" d="M 168.753906 229.3125 L 183.183594 220.933594 C 183.925781 220.519531 184.386719 219.570312 184.410156 218.253906 C 184.410156 215.644531 182.558594 212.453125 180.269531 211.136719 C 179.113281 210.46875 178.070312 210.398438 177.308594 210.835938 L 162.019531 219.710938 C 164.277344 222.902344 166.539062 226.089844 168.753906 229.3125 Z M 168.753906 229.3125 " fill-opacity="1" fill-rule="nonzero"/><path fill="#3d4449" d="M 173.867188 212.835938 C 174.628906 212.394531 175.671875 212.464844 176.828125 213.132812 C 179.117188 214.453125 180.96875 217.640625 180.96875 220.25 C 180.945312 221.566406 180.484375 222.515625 179.742188 222.929688 L 183.183594 220.933594 C 183.925781 220.519531 184.386719 219.570312 184.410156 218.253906 C 184.410156 215.644531 182.558594 212.453125 180.269531 211.136719 C 179.113281 210.46875 178.070312 210.398438 177.308594 210.835938 Z M 173.867188 212.835938 " fill-opacity="1" fill-rule="nonzero"/><path fill="#b785ff" d="M 93.597656 252.445312 C 95.21875 251.511719 97.433594 251.660156 99.890625 253.082031 C 104.757812 255.882812 108.691406 262.660156 108.691406 268.207031 C 108.640625 271.007812 107.65625 273.019531 106.085938 273.902344 L 171.828125 235.742188 C 173.402344 234.855469 174.386719 232.84375 174.433594 230.042969 C 174.433594 224.496094 170.503906 217.71875 165.636719 214.921875 C 163.175781 213.496094 160.964844 213.347656 159.34375 214.28125 Z M 93.597656 252.445312 " fill-opacity="1" fill-rule="nonzero"/><path fill="#ffca6c" d="M 152.03125 218.527344 C 153.652344 217.59375 155.863281 217.742188 158.320312 219.164062 C 163.1875 221.964844 167.121094 228.742188 167.121094 234.289062 C 167.074219 237.089844 166.089844 239.101562 164.515625 239.984375 L 171.828125 235.742188 C 173.402344 234.855469 174.386719 232.84375 174.433594 230.042969 C 174.433594 224.496094 170.503906 217.71875 165.636719 214.921875 C 163.175781 213.496094 160.964844 213.347656 159.34375 214.28125 Z M 152.03125 218.527344 " fill-opacity="1" fill-rule="nonzero"/><path fill="#ffca6c" d="M 93.945312 252.007812 C 95.582031 251.066406 97.816406 251.214844 100.300781 252.652344 C 105.214844 255.476562 109.1875 262.320312 109.1875 267.925781 C 109.136719 270.75 108.144531 272.78125 106.554688 273.675781 L 113.9375 269.390625 C 115.527344 268.496094 116.519531 266.464844 116.570312 263.636719 C 116.570312 258.035156 112.597656 251.191406 107.683594 248.367188 C 105.203125 246.925781 102.96875 246.777344 101.332031 247.722656 Z M 93.945312 252.007812 " fill-opacity="1" fill-rule="nonzero"/><g clip-path="url(#a2bcbf092d)"><path fill="#ffa20d" d="M 100.476562 252.511719 C 95.53125 249.664062 91.558594 251.925781 91.542969 257.5625 C 91.523438 263.238281 95.472656 270.105469 100.417969 272.957031 C 105.332031 275.789062 109.304688 273.492188 109.320312 267.816406 C 109.335938 262.179688 105.390625 255.347656 100.476562 252.511719 Z M 100.476562 252.511719 " fill-opacity="1" fill-rule="nonzero"/></g><path fill="#ffde9b" d="M 231.996094 175.453125 L 232.042969 191.40625 L 232.21875 160.140625 L 232.171875 144.183594 Z M 231.996094 175.453125 " fill-opacity="1" fill-rule="nonzero"/><path fill="#9156e5" d="M 231.996094 136.21875 L 232.042969 191.40625 L 270.375 169.300781 L 270.332031 114.113281 Z M 231.996094 136.21875 " fill-opacity="1" fill-rule="nonzero"/><path fill="#ffde9b" d="M 191.605469 127.289062 C 181.792969 132.949219 175.703125 140.761719 175.652344 149.390625 L 229.691406 149.394531 L 229.867188 118.128906 C 214.945312 118.132812 201.414062 121.632812 191.605469 127.289062 Z M 191.605469 127.289062 " fill-opacity="1" fill-rule="nonzero"/><path fill="#ffb63c" d="M 175.652344 149.390625 L 175.699219 189.101562 L 229.628906 189.105469 L 229.691406 149.394531 Z M 175.652344 149.390625 " fill-opacity="1" fill-rule="nonzero"/><path fill="#a46ef2" d="M 232.179688 104.945312 L 231.996094 136.21875 L 270.332031 114.113281 C 260.570312 108.445312 247.09375 104.949219 232.179688 104.945312 Z M 232.179688 104.945312 " fill-opacity="1" fill-rule="nonzero"/><path fill="#4dcdf3" d="M 236.609375 159.75 L 236.652344 185.910156 L 274.753906 208.023438 L 274.707031 181.863281 Z M 236.609375 159.75 " fill-opacity="1" fill-rule="nonzero"/><path fill="#71d8f8" d="M 274.707031 181.863281 L 274.753906 208.023438 C 284.554688 202.363281 290.648438 194.539062 290.699219 185.910156 L 290.652344 159.75 C 290.605469 168.382812 284.507812 176.203125 274.707031 181.863281 Z M 274.707031 181.863281 " fill-opacity="1" fill-rule="nonzero"/><path fill="#95e2fe" d="M 236.609375 159.75 L 274.707031 181.863281 C 295.898438 169.625 295.960938 149.835938 274.957031 137.644531 Z M 236.609375 159.75 " fill-opacity="1" fill-rule="nonzero"/><path fill="#ff6161" d="M 175.652344 168.683594 C 175.554688 185.964844 199.660156 199.957031 229.515625 199.957031 L 229.691406 168.6875 Z M 175.652344 168.683594 " fill-opacity="1" fill-rule="nonzero"/><path fill="#ff6161" d="M 231.820312 206.722656 L 231.867188 217.175781 L 232.042969 191.40625 L 231.996094 175.453125 Z M 231.820312 206.722656 " fill-opacity="1" fill-rule="nonzero"/><path fill="#e22525" d="M 175.652344 168.683594 L 175.699219 188.207031 C 175.601562 205.488281 199.707031 219.480469 229.5625 219.480469 L 229.515625 199.957031 C 199.660156 199.957031 175.554688 185.964844 175.652344 168.683594 Z M 175.652344 168.683594 " fill-opacity="1" fill-rule="nonzero"/><path fill="#457aef" d="M 231.820312 206.722656 L 231.867188 217.175781 C 246.785156 217.175781 260.324219 213.675781 270.140625 208.023438 L 270.097656 197.570312 C 260.277344 203.222656 246.742188 206.722656 231.820312 206.722656 Z M 231.820312 206.722656 " fill-opacity="1" fill-rule="nonzero"/><path fill="#4f91ff" d="M 231.996094 175.453125 L 231.820312 206.722656 C 246.742188 206.722656 260.277344 203.222656 270.097656 197.570312 Z M 231.996094 175.453125 " fill-opacity="1" fill-rule="nonzero"/><path fill="#ebf2ff" d="M 293.273438 175.414062 C 296.363281 186.484375 290.527344 198.246094 275.753906 206.761719 C 251.417969 220.796875 211.941406 220.796875 187.761719 206.761719 C 173.085938 198.246094 167.382812 186.484375 170.597656 175.414062 L 161.957031 175.414062 C 158.808594 187.761719 165.386719 200.769531 181.714844 210.25 C 209.210938 226.207031 254.101562 226.214844 281.773438 210.257812 C 298.210938 200.78125 304.9375 187.765625 301.929688 175.414062 Z M 293.273438 175.414062 " fill-opacity="1" fill-rule="nonzero"/><path fill="#ffca6c" d="M 228.585938 96.945312 C 228.585938 99.933594 226.164062 102.355469 223.167969 102.355469 C 220.175781 102.355469 217.753906 99.933594 217.753906 96.945312 C 217.753906 93.964844 220.175781 91.546875 223.167969 91.546875 C 226.164062 91.546875 228.585938 93.964844 228.585938 96.945312 Z M 228.585938 96.945312 " fill-opacity="1" fill-rule="nonzero"/><path fill="#4f575f" d="M 220.40625 96.992188 C 220.121094 96.992188 219.832031 96.914062 219.574219 96.75 L 194.652344 80.730469 C 193.9375 80.269531 193.730469 79.316406 194.1875 78.605469 C 194.648438 77.886719 195.601562 77.683594 196.316406 78.140625 L 221.242188 94.160156 C 221.957031 94.621094 222.160156 95.574219 221.703125 96.289062 C 221.40625 96.746094 220.910156 96.992188 220.40625 96.992188 Z M 220.40625 96.992188 " fill-opacity="1" fill-rule="nonzero"/><g clip-path="url(#0f3c6d4c50)"><path fill="#ff6161" d="M 200.902344 80.191406 C 200.902344 83.183594 198.480469 85.601562 195.484375 85.601562 C 192.488281 85.601562 190.066406 83.183594 190.066406 80.191406 C 190.066406 77.214844 192.488281 74.796875 195.484375 74.796875 C 198.480469 74.796875 200.902344 77.214844 200.902344 80.191406 Z M 200.902344 80.191406 " fill-opacity="1" fill-rule="nonzero"/></g><path fill="#4f575f" d="M 166.519531 136.195312 C 165.761719 135.8125 165.460938 134.886719 165.847656 134.128906 L 192.898438 81.0625 C 193.285156 80.300781 194.210938 80 194.96875 80.386719 C 195.726562 80.773438 196.027344 81.699219 195.640625 82.457031 L 168.589844 135.523438 C 168.203125 136.285156 167.273438 136.582031 166.519531 136.195312 Z M 166.519531 136.195312 " fill-opacity="1" fill-rule="nonzero"/><path fill="#b785ff" d="M 172.636719 134.742188 C 172.636719 137.734375 170.214844 140.152344 167.21875 140.152344 C 164.222656 140.152344 161.804688 137.734375 161.804688 134.742188 C 161.804688 131.765625 164.222656 129.34375 167.21875 129.34375 C 170.214844 129.34375 172.636719 131.765625 172.636719 134.742188 Z M 172.636719 134.742188 " fill-opacity="1" fill-rule="nonzero"/><path fill="#4f575f" d="M 164.203125 135.054688 L 135.179688 120.753906 C 134.414062 120.375 134.101562 119.457031 134.476562 118.695312 C 134.855469 117.929688 135.777344 117.617188 136.539062 117.996094 L 165.5625 132.296875 C 166.328125 132.671875 166.640625 133.59375 166.265625 134.355469 C 165.890625 135.113281 164.972656 135.429688 164.203125 135.054688 Z M 164.203125 135.054688 " fill-opacity="1" fill-rule="nonzero"/><path fill="#49e4a3" d="M 141.851562 119.550781 C 141.851562 122.539062 139.429688 124.957031 136.4375 124.957031 C 133.441406 124.957031 131.019531 122.539062 131.019531 119.550781 C 131.019531 116.570312 133.441406 114.152344 136.4375 114.152344 C 139.429688 114.152344 141.851562 116.570312 141.851562 119.550781 Z M 141.851562 119.550781 " fill-opacity="1" fill-rule="nonzero"/><path fill="#4f575f" d="M 119.453125 175.195312 C 118.636719 174.957031 118.164062 174.105469 118.402344 173.289062 L 133.464844 121.554688 C 133.703125 120.738281 134.566406 120.277344 135.375 120.507812 C 136.191406 120.746094 136.660156 121.597656 136.421875 122.414062 L 121.359375 174.148438 C 121.125 174.949219 120.285156 175.433594 119.453125 175.195312 Z M 119.453125 175.195312 " fill-opacity="1" fill-rule="nonzero"/><path fill="#ff6161" d="M 124.257812 175.972656 C 124.257812 178.960938 121.835938 181.382812 118.84375 181.382812 C 115.847656 181.382812 113.425781 178.960938 113.425781 175.972656 C 113.425781 172.992188 115.847656 170.574219 118.84375 170.574219 C 121.835938 170.574219 124.257812 172.992188 124.257812 175.972656 Z M 124.257812 175.972656 " fill-opacity="1" fill-rule="nonzero"/></svg>