<svg width="48" height="71" viewBox="0 0 48 71" fill="none" xmlns="http://www.w3.org/2000/svg">
<path d="M23.1762 13.9446C25.8668 16.3602 32.7681 20.9794 38.8485 20.131C41.3231 19.3847 45.5298 15.9125 42.5604 7.99382M42.5604 7.99382C42.1872 6.69762 39.6144 3.7517 32.3086 2.33766C27.7326 1.86631 17.9796 1.52458 15.5757 3.92845M42.5604 7.99382C43.1692 8.72048 44.54 10.7276 45.1528 12.943C45.7655 15.1583 43.6798 18.6581 42.5604 20.131C41.5784 21.6432 38.5539 24.5735 34.3118 24.1964C31.9943 24.1571 26.6524 23.4422 23.8243 20.897L22.1157 13.9446C22.9641 17.4325 21.7622 22.7038 21.0551 24.9034C32.3675 24.9034 38.4557 28.4385 40.0858 30.2061C45.3177 34.4482 46.1544 45.6034 45.9187 50.6507M15.5757 3.92845C11.0979 6.22627 3.09682 13.6382 6.91473 24.9034C7.6414 28.5956 11.6989 36.5457 22.1157 38.8081C25.2187 38.9849 31.849 38.9495 33.5458 37.3941C32.721 39.7705 31.3187 45.7487 32.3086 50.6507C31.1924 49.6487 29.3153 48.2249 27.0059 46.8915M15.5757 3.92845C10.823 5.10682 1.45889 10.4566 2.02451 22.4288C2.59013 34.401 9.99813 40.1043 13.6314 41.4595C17.9718 41.8915 26.7231 42.6261 27.0059 42.1076C27.2887 41.5891 27.1237 45.0808 27.0059 46.8915M15.5757 43.227C11.805 44.1501 5.39464 48.5415 9.91957 58.7226C11.6282 61.0793 18.2506 65.3685 31.0713 63.6717C35.2741 62.6308 44.1276 58.5694 45.9187 50.6507M15.5757 43.227C19.6303 43.3098 23.7481 45.0106 27.0059 46.8915M15.5757 43.227C14.3188 42.6259 10.8269 42.5172 6.91473 46.8915C3.00256 51.2658 2.96721 55.6588 3.43855 57.3085C3.32072 60.5687 5.77172 67.3482 16.5184 68.3852C19.7 69.0136 27.5597 69.7049 33.5458 67.4425C36.1579 66.9869 42.2893 64.1574 45.9187 56.4837C46.2133 54.5393 46.6257 50.6507 45.9187 50.6507" stroke="#004FB6" stroke-width="3"/>
<path d="M4.65177 51.1973L6.71391 47.8979L9.542 45.4822L7.65661 53.8486L13.6074 62.5686L23.27 64.1594L31.931 63.5702L45.2466 55.0859L43.8915 59.7405L40.592 63.5702L34.5234 66.8696L27.8656 68.2837H19.0279L11.6041 67.8123L6.71391 64.1594L4.65177 60.4475L3.35556 56.0286L4.65177 51.1973Z" fill="#004FB6"/>
<path d="M5.65247 9.48292L8.0092 9.0705L5.18112 15.9639L3.5314 16.8477L5.65247 9.48292Z" fill="#004FB6"/>
<path d="M3.65003 16.553L5.123 15.4335L7.65649 29.1026L10.4257 33.4626L15.4337 37.4101L32.2255 38.5296L31.2239 43.7733V48.3689L28.1601 46.6014L26.3926 41.3576L21.738 41.5344L17.2013 40.7685L13.784 40.5328L11.4273 39.1187L9.18837 38.3528L7.24406 35.6426L2.88409 28.7491L2.05923 21.62L3.65003 16.553Z" fill="#004FB6"/>
<path d="M23.5643 15.492L32.6378 20.2644L41.4755 19.852L40.1793 21.6784L37.528 23.446H30.7524L27.5708 22.3265L24.5659 20.6179L23.5643 15.492Z" fill="#004FB6"/>
<path d="M20 12.707L21.1784 12.4124L22.5335 12L24 12.707L25 13.5L20.7659 15.037L20 12.707Z" fill="#004FB6"/>
</svg>
